<?xml version="1.0" encoding="UTF-8"?>
<!DOCTYPE svg PUBLIC "-//W3C//DTD SVG 1.1//EN" "http://www.w3.org/Graphics/SVG/1.1/DTD/svg11.dtd">
<svg xmlns="http://www.w3.org/2000/svg" xmlns:xlink="http://www.w3.org/1999/xlink" version="1.1" width="61px" height="61px" viewBox="-0.5 -0.5 61 61"><defs/><g><path d="M 0 0 L 60 0 L 60 60 L 0 60 Z" fill="#ffffff" stroke="none" pointer-events="all"/><path d="M 20.44 19.15 C 20.2 19.15 19.96 19.25 19.79 19.42 C 19.62 19.6 19.52 19.83 19.52 20.08 L 19.52 39.85 C 19.52 40.09 19.62 40.33 19.79 40.5 C 19.96 40.68 20.2 40.77 20.44 40.77 L 40.15 40.77 C 40.39 40.77 40.63 40.68 40.8 40.5 C 40.97 40.33 41.07 40.1 41.07 39.85 L 41.07 20.08 C 41.07 19.83 40.97 19.6 40.8 19.42 C 40.63 19.25 40.39 19.15 40.15 19.15 Z M 21.36 21 L 39.23 21 L 39.23 25.42 L 30.11 25.42 C 29.7 23.87 28.28 22.71 26.6 22.71 C 24.61 22.71 22.97 24.35 22.97 26.34 C 22.97 28.34 24.61 29.97 26.6 29.97 C 28.28 29.97 29.7 28.82 30.11 27.27 L 39.23 27.27 L 39.23 38.93 L 21.36 38.93 L 21.36 34.45 L 30.33 34.45 C 30.73 36.02 32.16 37.19 33.85 37.19 C 35.84 37.19 37.48 35.56 37.48 33.56 C 37.48 31.57 35.84 29.94 33.85 29.94 C 32.19 29.94 30.78 31.07 30.36 32.6 L 21.36 32.6 Z M 26.6 24.56 C 27.6 24.56 28.39 25.35 28.39 26.34 C 28.39 27.34 27.6 28.13 26.6 28.13 C 25.61 28.13 24.82 27.34 24.82 26.34 C 24.82 25.35 25.61 24.56 26.6 24.56 Z M 33.85 31.78 C 34.85 31.78 35.63 32.57 35.63 33.56 C 35.63 34.56 34.85 35.35 33.85 35.35 C 32.85 35.35 32.07 34.56 32.07 33.56 C 32.07 32.57 32.85 31.78 33.85 31.78 Z M 17.59 6 L 17.59 10.9 L 13.85 10.9 C 12.23 10.9 10.9 12.23 10.9 13.85 L 10.9 17.57 L 6.06 17.57 L 6.06 19.41 L 10.9 19.41 L 10.9 23.34 L 6.06 23.34 L 6.06 25.18 L 10.9 25.18 L 10.9 29.09 L 6.06 29.09 L 6.06 30.93 L 10.9 30.93 L 10.9 34.86 L 6.06 34.86 L 6.06 36.7 L 10.9 36.7 L 10.9 40.58 L 6.06 40.58 L 6.06 42.42 L 10.9 42.42 L 10.9 46.22 C 10.9 47.84 12.23 49.18 13.85 49.18 L 17.59 49.18 L 17.59 54 L 19.43 54 L 19.43 49.18 L 23.35 49.18 L 23.35 54 L 25.2 54 L 25.2 49.18 L 29.12 49.18 L 29.12 54 L 30.96 54 L 30.96 49.18 L 34.89 49.18 L 34.89 54 L 36.74 54 L 36.74 49.18 L 40.61 49.18 L 40.61 54 L 42.45 54 L 42.45 49.18 L 46.17 49.18 C 47.79 49.18 49.12 47.84 49.12 46.22 L 49.12 42.42 L 53.94 42.42 L 53.94 40.58 L 49.12 40.58 L 49.12 36.7 L 53.94 36.7 L 53.94 34.86 L 49.12 34.86 L 49.12 30.93 L 53.94 30.93 L 53.94 29.09 L 49.12 29.09 L 49.12 25.18 L 53.94 25.18 L 53.94 23.34 L 49.12 23.34 L 49.12 19.41 L 53.94 19.41 L 53.94 17.57 L 49.12 17.57 L 49.12 13.85 C 49.12 12.23 47.79 10.9 46.17 10.9 L 42.45 10.9 L 42.45 6 L 40.61 6 L 40.61 10.9 L 36.74 10.9 L 36.74 6 L 34.89 6 L 34.89 10.9 L 30.96 10.9 L 30.96 6 L 29.12 6 L 29.12 10.9 L 25.2 10.9 L 25.2 6 L 23.35 6 L 23.35 10.9 L 19.43 10.9 L 19.43 6 Z M 13.85 12.74 L 46.17 12.74 C 46.8 12.74 47.28 13.22 47.28 13.85 L 47.28 46.22 C 47.28 46.85 46.8 47.33 46.17 47.33 L 13.85 47.33 C 13.22 47.33 12.74 46.85 12.74 46.22 L 12.74 13.85 C 12.74 13.22 13.22 12.74 13.85 12.74 Z" fill="#232f3e" stroke="none" pointer-events="all"/></g></svg>